<svg xmlns="http://www.w3.org/2000/svg" xmlns:xlink="http://www.w3.org/1999/xlink" width="533" height="317" viewBox="0 0 533 317">
  <defs>
    <clipPath id="clip-path">
      <rect id="Rectangle_3107" data-name="Rectangle 3107" width="533" height="317" transform="translate(667 483)" fill="#ffdace" stroke="#707070" stroke-width="1"/>
    </clipPath>
  </defs>
  <g id="Mask_Group_1" data-name="Mask Group 1" transform="translate(-667 -483)" clip-path="url(#clip-path)">
    <g id="Group_5718" data-name="Group 5718">
      <path id="Path_12091" data-name="Path 12091" d="M624.861,58.662a5.34,5.34,0,1,0-5.34-5.34,5.339,5.339,0,0,0,5.34,5.34" transform="translate(485.443 495.401)" fill="#ffdace"/>
      <path id="Path_12103" data-name="Path 12103" d="M502.314,99.158a5.34,5.34,0,1,0-5.34-5.34,5.339,5.339,0,0,0,5.34,5.34" transform="translate(492.081 493.208)" fill="#ffdace"/>
      <path id="Path_12123" data-name="Path 12123" d="M706.56,169.47a5.34,5.34,0,1,0,5.34,5.34,5.34,5.34,0,0,0-5.34-5.34" transform="translate(481.017 488.82)" fill="#ffdace"/>
      <path id="Path_12129" data-name="Path 12129" d="M217.074,220.646a5.34,5.34,0,1,0-5.34-5.34,5.34,5.34,0,0,0,5.34,5.34" transform="translate(507.531 486.627)" fill="#ffdace"/>
      <path id="Path_12130" data-name="Path 12130" d="M298.42,220.646a5.34,5.34,0,1,0-5.34-5.34,5.34,5.34,0,0,0,5.34,5.34" transform="translate(503.125 486.627)" fill="#ffdace"/>
      <path id="Path_12131" data-name="Path 12131" d="M584.012,209.966a5.34,5.34,0,1,0,5.339,5.34,5.34,5.34,0,0,0-5.339-5.34" transform="translate(487.655 486.627)" fill="#ffdace"/>
      <path id="Path_12132" data-name="Path 12132" d="M665.711,209.966a5.34,5.34,0,1,0,5.34,5.34,5.34,5.34,0,0,0-5.34-5.34" transform="translate(483.23 486.627)" fill="#ffdace"/>
      <path id="Path_12133" data-name="Path 12133" d="M706.56,209.966a5.34,5.34,0,1,0,5.34,5.34,5.34,5.34,0,0,0-5.34-5.34" transform="translate(481.017 486.627)" fill="#ffdace"/>
      <path id="Path_12139" data-name="Path 12139" d="M461.817,250.463a5.34,5.34,0,1,0,5.34,5.339,5.34,5.34,0,0,0-5.34-5.339" transform="translate(494.274 484.433)" fill="#ffdace"/>
      <path id="Path_12140" data-name="Path 12140" d="M543.163,250.463A5.34,5.34,0,1,0,548.5,255.8a5.339,5.339,0,0,0-5.339-5.339" transform="translate(489.868 484.433)" fill="#ffdace"/>
      <path id="Path_12141" data-name="Path 12141" d="M584.012,250.463a5.34,5.34,0,1,0,5.339,5.339,5.339,5.339,0,0,0-5.339-5.339" transform="translate(487.655 484.433)" fill="#ffdace"/>
      <path id="Path_12142" data-name="Path 12142" d="M624.861,250.463A5.34,5.34,0,1,0,630.2,255.8a5.339,5.339,0,0,0-5.339-5.339" transform="translate(485.443 484.433)" fill="#ffdace"/>
      <path id="Path_12143" data-name="Path 12143" d="M665.711,250.463a5.34,5.34,0,1,0,5.34,5.339,5.34,5.34,0,0,0-5.34-5.339" transform="translate(483.23 484.433)" fill="#ffdace"/>
      <path id="Path_12144" data-name="Path 12144" d="M706.56,250.463a5.34,5.34,0,1,0,5.34,5.339,5.34,5.34,0,0,0-5.34-5.339" transform="translate(481.017 484.433)" fill="#ffdace"/>
      <path id="Path_12148" data-name="Path 12148" d="M420.968,290.959a5.34,5.34,0,1,0,5.34,5.339,5.34,5.34,0,0,0-5.34-5.339" transform="translate(496.487 482.24)" fill="#ffdace"/>
      <path id="Path_12149" data-name="Path 12149" d="M461.817,290.959a5.34,5.34,0,1,0,5.34,5.339,5.34,5.34,0,0,0-5.34-5.339" transform="translate(494.274 482.24)" fill="#ffdace"/>
      <path id="Path_12150" data-name="Path 12150" d="M502.314,290.959a5.34,5.34,0,1,0,5.339,5.339,5.339,5.339,0,0,0-5.339-5.339" transform="translate(492.081 482.24)" fill="#ffdace"/>
      <path id="Path_12151" data-name="Path 12151" d="M543.163,290.959A5.34,5.34,0,1,0,548.5,296.3a5.339,5.339,0,0,0-5.339-5.339" transform="translate(489.868 482.24)" fill="#ffdace"/>
      <path id="Path_12152" data-name="Path 12152" d="M584.012,290.959a5.34,5.34,0,1,0,5.339,5.339,5.339,5.339,0,0,0-5.339-5.339" transform="translate(487.655 482.24)" fill="#ffdace"/>
      <path id="Path_12153" data-name="Path 12153" d="M624.861,290.959A5.34,5.34,0,1,0,630.2,296.3a5.339,5.339,0,0,0-5.339-5.339" transform="translate(485.443 482.24)" fill="#ffdace"/>
      <path id="Path_12154" data-name="Path 12154" d="M665.711,290.959a5.34,5.34,0,1,0,5.34,5.339,5.34,5.34,0,0,0-5.34-5.339" transform="translate(483.23 482.24)" fill="#ffdace"/>
      <path id="Path_12155" data-name="Path 12155" d="M706.56,290.959a5.34,5.34,0,1,0,5.34,5.339,5.34,5.34,0,0,0-5.34-5.339" transform="translate(481.017 482.24)" fill="#ffdace"/>
      <path id="Path_12166" data-name="Path 12166" d="M706.155,24.842A12.422,12.422,0,1,0,693.732,12.42a12.436,12.436,0,0,0,12.423,12.423" transform="translate(481.423 498)" fill="#ffdace"/>
      <path id="Path_12167" data-name="Path 12167" d="M583.607,40.495a12.423,12.423,0,1,0,12.423,12.423,12.436,12.436,0,0,0-12.423-12.423" transform="translate(488.061 495.807)" fill="#ffdace"/>
      <path id="Path_12168" data-name="Path 12168" d="M665.306,40.495a12.423,12.423,0,1,0,12.423,12.423,12.436,12.436,0,0,0-12.423-12.423" transform="translate(483.635 495.807)" fill="#ffdace"/>
      <path id="Path_12169" data-name="Path 12169" d="M461.412,80.991a12.423,12.423,0,1,0,12.423,12.423,12.436,12.436,0,0,0-12.423-12.423" transform="translate(494.68 493.613)" fill="#ffdace"/>
      <path id="Path_12170" data-name="Path 12170" d="M542.758,80.991A12.423,12.423,0,1,0,555.18,93.414a12.436,12.436,0,0,0-12.423-12.423" transform="translate(490.274 493.613)" fill="#ffdace"/>
      <path id="Path_12171" data-name="Path 12171" d="M624.456,80.991a12.423,12.423,0,1,0,12.423,12.423,12.436,12.436,0,0,0-12.423-12.423" transform="translate(485.848 493.613)" fill="#ffdace"/>
      <path id="Path_12172" data-name="Path 12172" d="M420.562,121.486a12.423,12.423,0,1,0,12.423,12.423,12.436,12.436,0,0,0-12.423-12.423" transform="translate(496.892 491.419)" fill="#ffdace"/>
      <path id="Path_12173" data-name="Path 12173" d="M501.909,121.486a12.423,12.423,0,1,0,12.423,12.423,12.436,12.436,0,0,0-12.423-12.423" transform="translate(492.486 491.419)" fill="#ffdace"/>
      <path id="Path_12174" data-name="Path 12174" d="M379.713,161.983a12.423,12.423,0,1,0,12.423,12.423,12.436,12.436,0,0,0-12.423-12.423" transform="translate(499.105 489.226)" fill="#ffdace"/>
      <path id="Path_12175" data-name="Path 12175" d="M257.165,202.479A12.423,12.423,0,1,0,269.587,214.9a12.436,12.436,0,0,0-12.423-12.423" transform="translate(505.743 487.032)" fill="#ffdace"/>
      <path id="Path_12176" data-name="Path 12176" d="M338.864,202.479A12.423,12.423,0,1,0,351.286,214.9a12.436,12.436,0,0,0-12.423-12.423" transform="translate(501.318 487.032)" fill="#ffdace"/>
      <path id="Path_12177" data-name="Path 12177" d="M216.669,242.974A12.423,12.423,0,1,0,229.091,255.4a12.436,12.436,0,0,0-12.423-12.423" transform="translate(507.937 484.839)" fill="#ffdace"/>
      <path id="Path_12178" data-name="Path 12178" d="M298.014,242.974A12.423,12.423,0,1,0,310.436,255.4a12.436,12.436,0,0,0-12.423-12.423" transform="translate(503.53 484.839)" fill="#ffdace"/>
      <path id="Path_12180" data-name="Path 12180" d="M175.82,283.471a12.423,12.423,0,1,0,12.423,12.423,12.436,12.436,0,0,0-12.423-12.423" transform="translate(510.149 482.646)" fill="#ffdace"/>
      <path id="Path_12184" data-name="Path 12184" d="M706.256,42.367a10.652,10.652,0,1,0,10.652,10.652,10.664,10.664,0,0,0-10.652-10.652" transform="translate(481.321 495.705)" fill="#ffdace"/>
      <path id="Path_12185" data-name="Path 12185" d="M583.708,82.862A10.652,10.652,0,1,0,594.36,93.514a10.664,10.664,0,0,0-10.652-10.652" transform="translate(487.959 493.512)" fill="#ffdace"/>
      <path id="Path_12186" data-name="Path 12186" d="M665.407,82.862a10.652,10.652,0,1,0,10.652,10.652,10.664,10.664,0,0,0-10.652-10.652" transform="translate(483.534 493.512)" fill="#ffdace"/>
      <path id="Path_12187" data-name="Path 12187" d="M461.513,123.358a10.652,10.652,0,1,0,10.652,10.652,10.664,10.664,0,0,0-10.652-10.652" transform="translate(494.578 491.318)" fill="#ffdace"/>
      <path id="Path_12188" data-name="Path 12188" d="M542.859,123.358a10.652,10.652,0,1,0,10.652,10.652,10.664,10.664,0,0,0-10.652-10.652" transform="translate(490.172 491.318)" fill="#ffdace"/>
      <path id="Path_12189" data-name="Path 12189" d="M624.557,123.358a10.652,10.652,0,1,0,10.652,10.652,10.664,10.664,0,0,0-10.652-10.652" transform="translate(485.747 491.318)" fill="#ffdace"/>
      <path id="Path_12190" data-name="Path 12190" d="M420.663,163.855a10.652,10.652,0,1,0,10.652,10.652,10.664,10.664,0,0,0-10.652-10.652" transform="translate(496.791 489.125)" fill="#ffdace"/>
      <path id="Path_12191" data-name="Path 12191" d="M502.01,163.855a10.652,10.652,0,1,0,10.652,10.652,10.664,10.664,0,0,0-10.652-10.652" transform="translate(492.385 489.125)" fill="#ffdace"/>
      <path id="Path_12192" data-name="Path 12192" d="M379.814,204.351A10.652,10.652,0,1,0,390.466,215a10.664,10.664,0,0,0-10.652-10.652" transform="translate(499.004 486.931)" fill="#ffdace"/>
      <path id="Path_12193" data-name="Path 12193" d="M257.266,244.846A10.651,10.651,0,1,0,267.918,255.5a10.664,10.664,0,0,0-10.652-10.652" transform="translate(505.642 484.737)" fill="#ffdace"/>
      <path id="Path_12194" data-name="Path 12194" d="M338.965,244.846A10.651,10.651,0,1,0,349.617,255.5a10.664,10.664,0,0,0-10.652-10.652" transform="translate(501.216 484.737)" fill="#ffdace"/>
      <path id="Path_12195" data-name="Path 12195" d="M216.77,285.343a10.652,10.652,0,1,0,10.652,10.652,10.664,10.664,0,0,0-10.652-10.652" transform="translate(507.835 482.544)" fill="#ffdace"/>
      <path id="Path_12196" data-name="Path 12196" d="M298.115,285.343a10.652,10.652,0,1,0,10.652,10.652,10.664,10.664,0,0,0-10.652-10.652" transform="translate(503.429 482.544)" fill="#ffdace"/>
      <path id="Path_12201" data-name="Path 12201" d="M706.357,84.734a8.881,8.881,0,1,0,8.881,8.881,8.892,8.892,0,0,0-8.881-8.881" transform="translate(481.22 493.41)" fill="#ffdace"/>
      <path id="Path_12202" data-name="Path 12202" d="M583.809,125.23a8.881,8.881,0,1,0,8.881,8.881,8.892,8.892,0,0,0-8.881-8.881" transform="translate(487.858 491.217)" fill="#ffdace"/>
      <path id="Path_12203" data-name="Path 12203" d="M665.508,125.23a8.881,8.881,0,1,0,8.881,8.881,8.892,8.892,0,0,0-8.881-8.881" transform="translate(483.433 491.217)" fill="#ffdace"/>
      <path id="Path_12204" data-name="Path 12204" d="M461.614,165.727a8.881,8.881,0,1,0,8.881,8.881,8.892,8.892,0,0,0-8.881-8.881" transform="translate(494.477 489.023)" fill="#ffdace"/>
      <path id="Path_12205" data-name="Path 12205" d="M542.96,165.727a8.881,8.881,0,1,0,8.88,8.881,8.892,8.892,0,0,0-8.88-8.881" transform="translate(490.071 489.023)" fill="#ffdace"/>
      <path id="Path_12206" data-name="Path 12206" d="M624.658,165.727a8.881,8.881,0,1,0,8.881,8.881,8.892,8.892,0,0,0-8.881-8.881" transform="translate(485.645 489.023)" fill="#ffdace"/>
      <path id="Path_12207" data-name="Path 12207" d="M420.764,206.222a8.881,8.881,0,1,0,8.88,8.881,8.892,8.892,0,0,0-8.88-8.881" transform="translate(496.69 486.83)" fill="#ffdace"/>
      <path id="Path_12208" data-name="Path 12208" d="M502.111,206.222a8.881,8.881,0,1,0,8.881,8.881,8.892,8.892,0,0,0-8.881-8.881" transform="translate(492.283 486.83)" fill="#ffdace"/>
      <path id="Path_12209" data-name="Path 12209" d="M379.915,246.718A8.881,8.881,0,1,0,388.8,255.6a8.892,8.892,0,0,0-8.881-8.881" transform="translate(498.902 484.636)" fill="#ffdace"/>
      <path id="Path_12210" data-name="Path 12210" d="M257.367,287.215a8.881,8.881,0,1,0,8.881,8.881,8.892,8.892,0,0,0-8.881-8.881" transform="translate(505.54 482.442)" fill="#ffdace"/>
      <path id="Path_12211" data-name="Path 12211" d="M339.066,287.215a8.881,8.881,0,1,0,8.881,8.881,8.892,8.892,0,0,0-8.881-8.881" transform="translate(501.115 482.442)" fill="#ffdace"/>
      <path id="Path_12217" data-name="Path 12217" d="M706.459,127.1a7.111,7.111,0,1,0,7.11,7.11,7.119,7.119,0,0,0-7.11-7.11" transform="translate(481.119 491.115)" fill="#ffdace"/>
      <path id="Path_12218" data-name="Path 12218" d="M583.911,167.6a7.111,7.111,0,1,0,7.111,7.11,7.118,7.118,0,0,0-7.111-7.11" transform="translate(487.757 488.922)" fill="#ffdace"/>
      <path id="Path_12219" data-name="Path 12219" d="M665.61,167.6a7.111,7.111,0,1,0,7.11,7.11,7.119,7.119,0,0,0-7.11-7.11" transform="translate(483.331 488.922)" fill="#ffdace"/>
      <path id="Path_12220" data-name="Path 12220" d="M461.716,208.094a7.111,7.111,0,1,0,7.11,7.11,7.118,7.118,0,0,0-7.11-7.11" transform="translate(494.376 486.729)" fill="#ffdace"/>
      <path id="Path_12221" data-name="Path 12221" d="M543.062,208.094a7.111,7.111,0,1,0,7.11,7.11,7.119,7.119,0,0,0-7.11-7.11" transform="translate(489.969 486.729)" fill="#ffdace"/>
      <path id="Path_12222" data-name="Path 12222" d="M624.76,208.094a7.111,7.111,0,1,0,7.111,7.11,7.118,7.118,0,0,0-7.111-7.11" transform="translate(485.544 486.729)" fill="#ffdace"/>
      <path id="Path_12223" data-name="Path 12223" d="M420.866,248.59a7.111,7.111,0,1,0,7.11,7.11,7.118,7.118,0,0,0-7.11-7.11" transform="translate(496.588 484.535)" fill="#ffdace"/>
      <path id="Path_12224" data-name="Path 12224" d="M502.213,248.59a7.111,7.111,0,1,0,7.11,7.11,7.119,7.119,0,0,0-7.11-7.11" transform="translate(492.182 484.535)" fill="#ffdace"/>
      <path id="Path_12225" data-name="Path 12225" d="M380.017,289.087a7.111,7.111,0,1,0,7.11,7.11,7.118,7.118,0,0,0-7.11-7.11" transform="translate(498.801 482.341)" fill="#ffdace"/>
      <path id="Path_12156" data-name="Path 12156" d="M12.828,342.134a5.34,5.34,0,1,0-5.34-5.34,5.34,5.34,0,0,0,5.34,5.34" transform="translate(518.594 480.046)" fill="#ffdace"/>
      <path id="Path_12157" data-name="Path 12157" d="M380.119,331.454a5.34,5.34,0,1,0,5.34,5.34,5.34,5.34,0,0,0-5.34-5.34" transform="translate(498.699 480.046)" fill="#ffdace"/>
      <path id="Path_12158" data-name="Path 12158" d="M420.968,331.454a5.34,5.34,0,1,0,5.34,5.34,5.34,5.34,0,0,0-5.34-5.34" transform="translate(496.487 480.046)" fill="#ffdace"/>
      <path id="Path_12159" data-name="Path 12159" d="M461.817,331.454a5.34,5.34,0,1,0,5.34,5.34,5.34,5.34,0,0,0-5.34-5.34" transform="translate(494.274 480.046)" fill="#ffdace"/>
      <path id="Path_12160" data-name="Path 12160" d="M502.314,331.454a5.34,5.34,0,1,0,5.339,5.34,5.34,5.34,0,0,0-5.339-5.34" transform="translate(492.081 480.046)" fill="#ffdace"/>
      <path id="Path_12161" data-name="Path 12161" d="M543.163,331.454a5.34,5.34,0,1,0,5.339,5.34,5.34,5.34,0,0,0-5.339-5.34" transform="translate(489.868 480.046)" fill="#ffdace"/>
      <path id="Path_12162" data-name="Path 12162" d="M584.012,331.454a5.34,5.34,0,1,0,5.339,5.34,5.34,5.34,0,0,0-5.339-5.34" transform="translate(487.655 480.046)" fill="#ffdace"/>
      <path id="Path_12163" data-name="Path 12163" d="M624.861,331.454a5.34,5.34,0,1,0,5.339,5.34,5.34,5.34,0,0,0-5.339-5.34" transform="translate(485.443 480.046)" fill="#ffdace"/>
      <path id="Path_12164" data-name="Path 12164" d="M665.711,331.454a5.34,5.34,0,1,0,5.34,5.34,5.34,5.34,0,0,0-5.34-5.34" transform="translate(483.23 480.046)" fill="#ffdace"/>
      <path id="Path_12165" data-name="Path 12165" d="M706.56,331.454a5.34,5.34,0,1,0,5.34,5.34,5.34,5.34,0,0,0-5.34-5.34" transform="translate(481.017 480.046)" fill="#ffdace"/>
      <path id="Path_12181" data-name="Path 12181" d="M53.272,323.967A12.423,12.423,0,1,0,65.694,336.39a12.436,12.436,0,0,0-12.423-12.423" transform="translate(516.787 480.452)" fill="#ffdace"/>
      <path id="Path_12182" data-name="Path 12182" d="M134.971,323.967a12.423,12.423,0,1,0,12.423,12.423,12.436,12.436,0,0,0-12.423-12.423" transform="translate(512.362 480.452)" fill="#ffdace"/>
      <path id="Path_12183" data-name="Path 12183" d="M12.423,364.462a12.423,12.423,0,1,0,12.423,12.423,12.436,12.436,0,0,0-12.423-12.423" transform="translate(519 478.258)" fill="#ffdace"/>
      <path id="Path_12197" data-name="Path 12197" d="M94.222,325.839a10.652,10.652,0,1,0,10.652,10.652,10.664,10.664,0,0,0-10.652-10.652" transform="translate(514.473 480.351)" fill="#ffdace"/>
      <path id="Path_12198" data-name="Path 12198" d="M175.921,325.839a10.652,10.652,0,1,0,10.652,10.652,10.664,10.664,0,0,0-10.652-10.652" transform="translate(510.048 480.351)" fill="#ffdace"/>
      <path id="Path_12199" data-name="Path 12199" d="M53.373,366.334a10.652,10.652,0,1,0,10.652,10.652,10.664,10.664,0,0,0-10.652-10.652" transform="translate(516.686 478.157)" fill="#ffdace"/>
      <path id="Path_12200" data-name="Path 12200" d="M135.072,366.334a10.652,10.652,0,1,0,10.652,10.652,10.664,10.664,0,0,0-10.652-10.652" transform="translate(512.261 478.157)" fill="#ffdace"/>
      <path id="Path_12212" data-name="Path 12212" d="M216.871,327.711a8.881,8.881,0,1,0,8.881,8.881,8.892,8.892,0,0,0-8.881-8.881" transform="translate(507.734 480.249)" fill="#ffdace"/>
      <path id="Path_12213" data-name="Path 12213" d="M298.216,327.711a8.881,8.881,0,1,0,8.88,8.881,8.892,8.892,0,0,0-8.88-8.881" transform="translate(503.328 480.249)" fill="#ffdace"/>
      <path id="Path_12214" data-name="Path 12214" d="M94.323,368.206a8.881,8.881,0,1,0,8.881,8.881,8.892,8.892,0,0,0-8.881-8.881" transform="translate(514.372 478.056)" fill="#ffdace"/>
      <path id="Path_12215" data-name="Path 12215" d="M176.022,368.206a8.881,8.881,0,1,0,8.881,8.881,8.892,8.892,0,0,0-8.881-8.881" transform="translate(509.947 478.056)" fill="#ffdace"/>
      <path id="Path_12216" data-name="Path 12216" d="M257.571,371.95a5.34,5.34,0,1,0,5.34,5.34,5.34,5.34,0,0,0-5.34-5.34" transform="translate(505.337 477.853)" fill="#ffdace"/>
      <path id="Path_12226" data-name="Path 12226" d="M257.469,329.582a7.111,7.111,0,1,0,7.11,7.11,7.118,7.118,0,0,0-7.11-7.11" transform="translate(505.439 480.148)" fill="#ffdace"/>
      <path id="Path_12227" data-name="Path 12227" d="M339.168,329.582a7.111,7.111,0,1,0,7.11,7.11,7.118,7.118,0,0,0-7.11-7.11" transform="translate(501.014 480.148)" fill="#ffdace"/>
      <path id="Path_12228" data-name="Path 12228" d="M216.973,370.078a7.111,7.111,0,1,0,7.11,7.11,7.118,7.118,0,0,0-7.11-7.11" transform="translate(507.632 477.954)" fill="#ffdace"/>
      <path id="Path_12229" data-name="Path 12229" d="M298.318,370.078a7.111,7.111,0,1,0,7.11,7.11,7.118,7.118,0,0,0-7.11-7.11" transform="translate(503.226 477.954)" fill="#ffdace"/>
      <path id="Path_12230" data-name="Path 12230" d="M339.269,371.95a5.34,5.34,0,1,0,5.34,5.34,5.34,5.34,0,0,0-5.34-5.34" transform="translate(500.912 477.853)" fill="#ffdace"/>
      <path id="Path_12231" data-name="Path 12231" d="M380.119,371.95a5.34,5.34,0,1,0,5.34,5.34,5.34,5.34,0,0,0-5.34-5.34" transform="translate(498.699 477.853)" fill="#ffdace"/>
      <path id="Path_12232" data-name="Path 12232" d="M420.968,371.95a5.34,5.34,0,1,0,5.34,5.34,5.34,5.34,0,0,0-5.34-5.34" transform="translate(496.487 477.853)" fill="#ffdace"/>
      <path id="Path_12233" data-name="Path 12233" d="M461.817,371.95a5.34,5.34,0,1,0,5.34,5.34,5.34,5.34,0,0,0-5.34-5.34" transform="translate(494.274 477.853)" fill="#ffdace"/>
      <path id="Path_12234" data-name="Path 12234" d="M502.314,371.95a5.34,5.34,0,1,0,5.339,5.34,5.34,5.34,0,0,0-5.339-5.34" transform="translate(492.081 477.853)" fill="#ffdace"/>
      <path id="Path_12235" data-name="Path 12235" d="M543.163,371.95a5.34,5.34,0,1,0,5.339,5.34,5.34,5.34,0,0,0-5.339-5.34" transform="translate(489.868 477.853)" fill="#ffdace"/>
      <path id="Path_12236" data-name="Path 12236" d="M584.012,371.95a5.34,5.34,0,1,0,5.339,5.34,5.34,5.34,0,0,0-5.339-5.34" transform="translate(487.655 477.853)" fill="#ffdace"/>
      <path id="Path_12237" data-name="Path 12237" d="M624.861,371.95a5.34,5.34,0,1,0,5.339,5.34,5.34,5.34,0,0,0-5.339-5.34" transform="translate(485.443 477.853)" fill="#ffdace"/>
      <path id="Path_12238" data-name="Path 12238" d="M665.711,371.95a5.34,5.34,0,1,0,5.34,5.34,5.34,5.34,0,0,0-5.34-5.34" transform="translate(483.23 477.853)" fill="#ffdace"/>
      <path id="Path_12239" data-name="Path 12239" d="M706.56,371.95a5.34,5.34,0,1,0,5.34,5.34,5.34,5.34,0,0,0-5.34-5.34" transform="translate(481.017 477.853)" fill="#ffdace"/>
      <path id="Path_12240" data-name="Path 12240" d="M12.828,414.72a5.34,5.34,0,1,0,5.34,5.34,5.34,5.34,0,0,0-5.34-5.34" transform="translate(518.594 475.536)" fill="#ffdace"/>
      <path id="Path_12241" data-name="Path 12241" d="M53.677,414.72a5.34,5.34,0,1,0,5.34,5.34,5.34,5.34,0,0,0-5.34-5.34" transform="translate(516.382 475.536)" fill="#ffdace"/>
      <path id="Path_12242" data-name="Path 12242" d="M94.526,414.72a5.34,5.34,0,1,0,5.34,5.34,5.34,5.34,0,0,0-5.34-5.34" transform="translate(514.169 475.536)" fill="#ffdace"/>
      <path id="Path_12243" data-name="Path 12243" d="M135.376,414.72a5.34,5.34,0,1,0,5.34,5.34,5.34,5.34,0,0,0-5.34-5.34" transform="translate(511.956 475.536)" fill="#ffdace"/>
      <path id="Path_12244" data-name="Path 12244" d="M176.225,414.72a5.34,5.34,0,1,0,5.34,5.34,5.34,5.34,0,0,0-5.34-5.34" transform="translate(509.744 475.536)" fill="#ffdace"/>
      <path id="Path_12245" data-name="Path 12245" d="M217.074,414.72a5.34,5.34,0,1,0,5.34,5.34,5.34,5.34,0,0,0-5.34-5.34" transform="translate(507.531 475.536)" fill="#ffdace"/>
      <path id="Path_12246" data-name="Path 12246" d="M257.571,414.72a5.34,5.34,0,1,0,5.34,5.34,5.34,5.34,0,0,0-5.34-5.34" transform="translate(505.337 475.536)" fill="#ffdace"/>
      <path id="Path_12247" data-name="Path 12247" d="M298.42,414.72a5.34,5.34,0,1,0,5.34,5.34,5.34,5.34,0,0,0-5.34-5.34" transform="translate(503.125 475.536)" fill="#ffdace"/>
      <path id="Path_12248" data-name="Path 12248" d="M339.269,414.72a5.34,5.34,0,1,0,5.34,5.34,5.34,5.34,0,0,0-5.34-5.34" transform="translate(500.912 475.536)" fill="#ffdace"/>
      <path id="Path_12249" data-name="Path 12249" d="M380.119,414.72a5.34,5.34,0,1,0,5.34,5.34,5.34,5.34,0,0,0-5.34-5.34" transform="translate(498.699 475.536)" fill="#ffdace"/>
      <path id="Path_12250" data-name="Path 12250" d="M420.968,414.72a5.34,5.34,0,1,0,5.34,5.34,5.34,5.34,0,0,0-5.34-5.34" transform="translate(496.487 475.536)" fill="#ffdace"/>
      <path id="Path_12251" data-name="Path 12251" d="M461.817,414.72a5.34,5.34,0,1,0,5.34,5.34,5.34,5.34,0,0,0-5.34-5.34" transform="translate(494.274 475.536)" fill="#ffdace"/>
      <path id="Path_12252" data-name="Path 12252" d="M502.314,414.72a5.34,5.34,0,1,0,5.339,5.34,5.34,5.34,0,0,0-5.339-5.34" transform="translate(492.081 475.536)" fill="#ffdace"/>
      <path id="Path_12253" data-name="Path 12253" d="M543.163,414.72a5.34,5.34,0,1,0,5.339,5.34,5.34,5.34,0,0,0-5.339-5.34" transform="translate(489.868 475.536)" fill="#ffdace"/>
      <path id="Path_12254" data-name="Path 12254" d="M584.012,414.72a5.34,5.34,0,1,0,5.339,5.34,5.34,5.34,0,0,0-5.339-5.34" transform="translate(487.655 475.536)" fill="#ffdace"/>
      <path id="Path_12255" data-name="Path 12255" d="M624.861,414.72a5.34,5.34,0,1,0,5.339,5.34,5.34,5.34,0,0,0-5.339-5.34" transform="translate(485.443 475.536)" fill="#ffdace"/>
      <path id="Path_12256" data-name="Path 12256" d="M665.711,414.72a5.34,5.34,0,1,0,5.34,5.34,5.34,5.34,0,0,0-5.34-5.34" transform="translate(483.23 475.536)" fill="#ffdace"/>
    </g>
  </g>
</svg>
